<?xml version="1.0" encoding="utf-8"?>
<!-- Generator: Adobe Illustrator 22.1.0, SVG Export Plug-In . SVG Version: 6.00 Build 0)  -->
<svg version="1.1" baseProfile="tiny" id="Capa_1" xmlns="http://www.w3.org/2000/svg" xmlns:xlink="http://www.w3.org/1999/xlink"
	 x="0px" y="0px" viewBox="0 0 100 100" xml:space="preserve">
<g>
	<path fill="#FFFFFF" d="M19.7,1.5c-1,0.2-1.5,1.4-0.7,2.2l6.5,6.5c3.1,3.1,3.1,8.1,0,11.3l-4,4c-3.1,3.1-8.1,3.1-11.3,0L3.7,19
		c-0.7-0.7-2-0.3-2.2,0.7c-1,6.5,1,13.5,6.1,18.5c4.9,4.9,11.7,7,18.1,6.1c2.8-0.4,5.7,0.6,7.7,2.6l48.9,48.9
		c3.7,3.7,9.8,3.7,13.5,0c3.7-3.7,3.7-9.8,0-13.5L47,33.5c-2-2-3-4.9-2.6-7.7c0.8-6.4-1.2-13.2-6.1-18.1C33.2,2.6,26.3,0.6,19.7,1.5
		z M90.3,86.3c1.1,1.1,1.1,2.8,0,3.9s-2.8,1.1-3.9,0L36.4,40.3c-1.1-1.1-1.1-2.8,0-3.9c1.1-1.1,2.8-1.1,3.9,0L90.3,86.3z"/>
</g>
</svg>
