<svg width="341px" height="341px" viewBox="0 0 341 341" version="1.1" xmlns="http://www.w3.org/2000/svg" xmlns:xlink="http://www.w3.org/1999/xlink">
    <g id="Page-1" stroke="none" stroke-width="1" fill="none" fill-rule="evenodd">
        <g id="edit" fill="#FFFFFF">
            <path d="M332.41,8.73422714 C321.672,-2.08321829 302.928,-2.07517109 292.174,8.73422714 L129.326,172.542982 C127.652,174.218811 123.213,178.684 120.263,213.26985 L119.434,222.975776 L129.074,222.125791 C163.531,219.075903 167.896,214.68515 169.546,213.033463 L332.402,49.2086136 C343.505,38.0391032 343.505,19.8876431 332.41,8.73422714 Z M320.916,37.6387552 L158.621,200.899295 C155.776,202.11744 146.859,203.63836 137.487,204.799168 C138.609,195.387971 140.121,186.418363 141.356,183.572673 L303.692,20.2879912 C308.293,15.6598466 316.316,15.6598466 320.933,20.2879912 C325.663,25.0710442 325.663,32.8546962 320.916,37.6387552 Z" id="Shape" fill-rule="nonzero"></path>
            <path d="M315.795,323.751838 L16.257,323.751838 L16.257,22.4386047 L255.554,22.4386047 L271.811,6.08569322 L8.129,6.08569322 C3.642,6.08468732 0,9.74817404 0,14.261646 L0,331.927791 C0,336.44931 3.642,340.104749 8.129,340.104749 L323.924,340.104749 C328.419,340.104749 332.053,336.450316 332.053,331.927791 L332.053,72.683295 L315.796,89.0362065 C315.795,89.0362065 315.795,323.751838 315.795,323.751838 Z" id="Path"></path>
        </g>
    </g>
</svg>