<svg width="364px" height="364px" viewBox="0 0 364 364" version="1.1" xmlns="http://www.w3.org/2000/svg" xmlns:xlink="http://www.w3.org/1999/xlink">
    <g id="Page-1" stroke="none" stroke-width="1" fill="none" fill-rule="evenodd">
        <g id="infp" fill="#FFFFFF" fill-rule="nonzero">
            <path d="M181.512,363.024 C81.43,363.024 0,281.601 0,181.513 C0,81.424 81.43,0 181.512,0 C281.595,0 363.025,81.424 363.025,181.513 C363.025,281.601 281.595,363.024 181.512,363.024 Z M181.512,11.71 C87.88,11.71 11.71,87.886 11.71,181.513 C11.71,275.14 87.88,351.315 181.512,351.315 C275.145,351.315 351.315,275.14 351.315,181.513 C351.315,87.886 275.145,11.71 181.512,11.71 Z" id="Shape"></path>
            <path d="M197.21,98.248 C197.507,107.12 191.003,114.21 180.665,114.21 C171.508,114.21 165,107.12 165,98.248 C165,89.097 171.799,82 181.248,82 C191.003,82 197.21,89.096 197.21,98.248 Z M168.256,281.435 L168.256,138.431 L194.253,138.431 L194.253,281.435 L168.256,281.435 Z" id="Shape"></path>
        </g>
    </g>
</svg>