<?xml version="1.0" encoding="utf-8"?>
<!-- Generator: Adobe Illustrator 22.1.0, SVG Export Plug-In . SVG Version: 6.00 Build 0)  -->
<svg version="1.1" baseProfile="tiny" id="katman_1"
	 xmlns="http://www.w3.org/2000/svg" xmlns:xlink="http://www.w3.org/1999/xlink" x="0px" y="0px" viewBox="0 0 100 100"
	 xml:space="preserve">
<g id="Page-1">
	<g id="infp">
		<path id="Shape" fill="#FFFFFF" stroke="#FFFFFF" stroke-width="2" stroke-miterlimit="10" d="M50,98.3C23.4,98.3,1.7,76.6,1.7,50
			C1.7,23.4,23.4,1.7,50,1.7c26.6,0,48.3,21.6,48.3,48.3C98.3,76.6,76.6,98.3,50,98.3z M50,4.9C25.1,4.9,4.9,25.1,4.9,50
			S25.1,95.1,50,95.1c24.9,0,45.1-20.3,45.1-45.1S74.9,4.9,50,4.9z"/>
		<path id="Shape_1_" fill="#FFFFFF" stroke="#FFFFFF" stroke-width="2" stroke-miterlimit="10" d="M54.2,27.9
			c0.1,2.4-1.7,4.2-4.4,4.2c-2.4,0-4.2-1.9-4.2-4.2c0-2.4,1.8-4.3,4.3-4.3C52.5,23.5,54.2,25.4,54.2,27.9z M46.5,76.6v-38h6.9v38
			H46.5z"/>
	</g>
</g>
</svg>
