<svg width="335px" height="446px" viewBox="0 0 335 446" version="1.1" xmlns="http://www.w3.org/2000/svg" xmlns:xlink="http://www.w3.org/1999/xlink">
    <g id="Page-1" stroke="none" stroke-width="1" fill="none" fill-rule="evenodd">
        <g id="locked" fill="#FFFFFF" fill-rule="nonzero">
            <path d="M267.839,185.34 L267.839,100.25 C267.839,44.967 222.871,0 167.589,0 C112.307,0 67.339,44.967 67.339,100.25 L67.339,185.348 L0.953,185.348 L0.953,445.178 L334.225,445.178 L334.225,185.34 L267.839,185.34 Z M83.596,100.25 C83.596,53.933 121.28,16.257 167.589,16.257 C213.898,16.257 251.582,53.941 251.582,100.25 L251.582,184.243 L83.596,184.243 L83.596,100.25 Z M317.967,428.921 L17.21,428.921 L17.21,201.597 L317.967,201.597 L317.967,428.921 Z" id="Shape"></path>
        </g>
    </g>
</svg>