<?xml version="1.0" encoding="utf-8"?>
<!-- Generator: Adobe Illustrator 22.1.0, SVG Export Plug-In . SVG Version: 6.00 Build 0)  -->
<svg version="1.1" baseProfile="tiny" id="katman_1"
	 xmlns="http://www.w3.org/2000/svg" xmlns:xlink="http://www.w3.org/1999/xlink" x="0px" y="0px" viewBox="0 0 64 64"
	 xml:space="preserve">
<path fill="#C0392B" d="M32,63.2c-17.2,0-31.2-14-31.2-31.2S14.8,0.8,32,0.8s31.2,14,31.2,31.2S49.2,63.2,32,63.2z"/>
<path fill="#893131" d="M32,1.7c16.7,0,30.3,13.6,30.3,30.3S48.7,62.3,32,62.3S1.7,48.7,1.7,32S15.3,1.7,32,1.7 M32,0
	C14.3,0,0,14.3,0,32s14.3,32,32,32s32-14.3,32-32S49.7,0,32,0z"/>
<rect x="29.5" y="10.1" fill="#FFFFFF" width="5.1" height="21.9"/>
<path fill="#FFFFFF" d="M32,51.4c-4.7,0-9.4-1.7-13-5.1c-3.9-3.5-6.1-8.3-6.4-13.3c-0.3-5.2,1.5-10.1,4.9-14
	c0.5-0.7,1.2-1.2,1.7-1.7l3.4,3.9c-0.5,0.3-0.8,0.8-1.3,1.3c-2.5,2.9-3.9,6.6-3.7,10.3c0.2,3.9,1.9,7.4,4.7,9.9
	c2.9,2.5,6.6,3.9,10.3,3.7c3.9-0.2,7.4-1.9,9.9-4.7c5.2-5.9,4.9-15-1-20.2l3.4-3.7c7.9,7.1,8.6,19.4,1.5,27.3
	c-3.5,3.9-8.3,6.1-13.3,6.4C32.7,51.4,32.3,51.4,32,51.4z"/>
</svg>
