<?xml version="1.0" encoding="utf-8"?>
<!-- Generator: Adobe Illustrator 22.1.0, SVG Export Plug-In . SVG Version: 6.00 Build 0)  -->
<svg version="1.1" baseProfile="tiny" id="katman_1"
	 xmlns="http://www.w3.org/2000/svg" xmlns:xlink="http://www.w3.org/1999/xlink" x="0px" y="0px" viewBox="0 0 64 64"
	 xml:space="preserve">
<g>
	<circle fill="#C0392B" cx="32" cy="32" r="31.5"/>
	<path fill="#7A392B" d="M32,1c17.1,0,31,13.9,31,31S49.1,63,32,63S1,49.1,1,32S14.9,1,32,1 M32,0C14.3,0,0,14.3,0,32s14.3,32,32,32
		s32-14.3,32-32S49.7,0,32,0L32,0z"/>
</g>
<path fill="#FFFFFF" d="M45,19.1L45,19.1c-0.7-0.7-1.9-0.7-2.6,0L32.1,29.4l-11-11c-0.7-0.7-1.9-0.7-2.6,0l0,0
	c-0.7,0.7-0.7,1.9,0,2.6l11,11L19.1,42.5c-0.7,0.7-0.7,1.9,0,2.6l0,0c0.7,0.7,1.9,0.7,2.6,0l10.4-10.4l9.8,9.8
	c0.7,0.7,1.9,0.7,2.6,0l0,0c0.7-0.7,0.7-1.9,0-2.6L34.7,32L45,21.7C45.8,20.9,45.8,19.8,45,19.1z"/>
</svg>
