<?xml version="1.0" encoding="utf-8"?>
<!-- Generator: Adobe Illustrator 22.1.0, SVG Export Plug-In . SVG Version: 6.00 Build 0)  -->
<svg version="1.1" baseProfile="tiny" id="katman_1"
	 xmlns="http://www.w3.org/2000/svg" xmlns:xlink="http://www.w3.org/1999/xlink" x="0px" y="0px" viewBox="0 0 64 64"
	 xml:space="preserve">
<path fill="#C0392B" d="M32,0C14.4,0,0,14.4,0,32s14.4,32,32,32s32-14.4,32-32S49.6,0,32,0z"/>
<path fill="#FFFFFF" d="M32,61.5c-16.1,0-29.2-13.1-29.2-29.2c0-12.6,8-23.7,19.9-27.7c0.7-0.2,1.5,0.1,1.8,0.9
	c0.2,0.7-0.1,1.5-0.9,1.8c-10.8,3.6-18,13.7-18,25.1c0,14.6,11.9,26.4,26.4,26.4s26.4-11.9,26.4-26.4c0-11.4-7.2-21.4-18-25.1
	c-0.7-0.2-1.1-1-0.9-1.8c0.2-0.7,1-1.1,1.8-0.9c11.9,4,19.9,15.1,19.9,27.7C61.2,48.4,48.1,61.5,32,61.5z"/>
<path fill="#FFFFFF" d="M30.6,4.9c0-0.8,0.6-1.4,1.4-1.4s1.4,0.6,1.4,1.4v30.6c0,0.8-0.6,1.4-1.4,1.4s-1.4-0.6-1.4-1.4V4.9z"/>
</svg>
