<?xml version="1.0" encoding="utf-8"?>
<!-- Generator: Adobe Illustrator 22.1.0, SVG Export Plug-In . SVG Version: 6.00 Build 0)  -->
<svg version="1.1" baseProfile="tiny" id="katman_1"
	 xmlns="http://www.w3.org/2000/svg" xmlns:xlink="http://www.w3.org/1999/xlink" x="0px" y="0px" viewBox="0 0 100 100"
	 xml:space="preserve">
<g id="surface1">
	<path fill="#FFFFFF" stroke="#FFFFFF" stroke-width="2" stroke-miterlimit="10" d="M50,2.9c-1.1,0-2,1-2,2.1v45.2
		c0,0.7,0.4,1.4,1,1.8c0.6,0.4,1.4,0.4,2.1,0c0.6-0.4,1-1.1,1-1.8V5c0-0.6-0.2-1.1-0.6-1.5C51.1,3.1,50.5,2.9,50,2.9z M35.7,5.3
		c-0.3,0-0.5,0-0.7,0.1c-18.7,6.3-32.2,24-32.2,44.8c0,26.1,21.2,47.2,47.2,47.2s47.2-21.2,47.2-47.2c0-20.8-13.5-38.5-32.2-44.8
		C64,5,62.8,5.6,62.4,6.7c-0.4,1.1,0.2,2.2,1.3,2.6C80.8,15,93.1,31.2,93.1,50.2c0,23.8-19.3,43.1-43.1,43.1S6.9,74.1,6.9,50.2
		c0-19,12.3-35.2,29.4-40.9c1-0.3,1.5-1.3,1.4-2.2C37.5,6.1,36.7,5.3,35.7,5.3z"/>
</g>
</svg>
