<?xml version="1.0" encoding="utf-8"?>
<!-- Generator: Adobe Illustrator 22.1.0, SVG Export Plug-In . SVG Version: 6.00 Build 0)  -->
<svg version="1.1" baseProfile="tiny" id="katman_1"
	 xmlns="http://www.w3.org/2000/svg" xmlns:xlink="http://www.w3.org/1999/xlink" x="0px" y="0px" viewBox="0 0 100 100"
	 xml:space="preserve">
<g id="Page-1">
	<g id="settings" transform="translate(-1.000000, 0.000000)">
		<path id="Shape" fill="#FFFFFF" stroke="#FFFFFF" stroke-width="2" stroke-miterlimit="10" d="M51.1,98.5c-2.2,0-4.5-0.2-6.7-0.5
			c-1.2-0.2-2.2-0.8-2.8-1.8c-0.7-1-0.9-2.2-0.6-3.3c0.3-1.4,0.2-2.8-0.4-4.1c-1-2.3-3.4-3.9-6-3.9c-0.9,0-1.8,0.2-2.6,0.6
			c-1.3,0.6-2.3,1.5-3,2.7c-0.6,1-1.6,1.7-2.7,2c-1.1,0.2-2.3,0-3.3-0.7c-4.1-2.9-7.7-6.4-10.7-10.4c-0.7-0.9-1-2.1-0.8-3.3
			c0.2-1.1,0.9-2.1,1.9-2.7c1.2-0.8,2.1-1.9,2.6-3.2c0.6-1.6,0.6-3.4-0.1-5c-0.7-1.6-2-2.8-3.6-3.4c-1.3-0.5-2.6-0.5-4-0.2
			C7.2,61.7,6,61.5,5,60.9c-1-0.6-1.6-1.7-1.8-2.8C2.3,53.2,2.3,48.2,3,43.2c0.2-1.1,0.8-2.2,1.7-2.8c0.9-0.7,2.1-0.9,3.3-0.6
			c1.4,0.3,2.8,0.2,4.1-0.4c1.6-0.7,2.8-2,3.4-3.6c0.6-1.6,0.6-3.4-0.1-5c-0.5-1.2-1.4-2.2-2.6-2.9c-1-0.6-1.7-1.6-1.9-2.7
			c-0.2-1.1,0-2.3,0.7-3.3c2.9-4.1,6.3-7.6,10.3-10.6c0.9-0.7,2.1-1,3.2-0.8c1.1,0.2,2.1,0.9,2.8,1.8c0.8,1.2,1.8,2.1,3.1,2.5
			c0.8,0.3,1.5,0.4,2.3,0.4c2.7,0,5.1-1.7,6.1-4.2c0.5-1.2,0.6-2.6,0.2-3.9C39.3,6.1,39.5,5,40.1,4c0.6-1,1.6-1.6,2.8-1.8
			c4.8-0.8,9.9-0.9,14.8-0.2c1.1,0.2,2.2,0.8,2.8,1.7c0.7,0.9,0.9,2.1,0.7,3.2c-0.3,1.4-0.1,2.7,0.4,4c1,2.4,3.4,3.9,6,3.9
			c0.9,0,1.8-0.2,2.6-0.6c1.2-0.5,2.2-1.4,2.9-2.6c0.6-1,1.6-1.7,2.7-1.9c1.2-0.2,2.3,0,3.2,0.7c4.1,2.9,7.6,6.3,10.6,10.3
			c0.7,0.9,1,2.1,0.8,3.2c-0.2,1.1-0.9,2.1-1.8,2.8c-1.2,0.8-2.1,1.8-2.5,3.1c-1.3,3.4,0.4,7.1,3.7,8.4c1.2,0.5,2.6,0.6,3.9,0.2
			c1.1-0.3,2.3-0.1,3.3,0.5c1,0.6,1.6,1.6,1.8,2.8c0.9,4.9,0.9,9.9,0.3,14.8c-0.2,1.2-0.8,2.2-1.7,2.8c-0.7,0.5-1.5,0.7-2.4,0.7
			c0,0,0,0,0,0c-0.3,0-0.6,0-0.9-0.1c-1.4-0.3-2.8-0.2-4.1,0.4c-3.3,1.5-4.8,5.3-3.3,8.6c0.6,1.2,1.5,2.3,2.7,3c1,0.6,1.7,1.6,2,2.7
			c0.2,1.1,0,2.3-0.7,3.3c-2.9,4.1-6.4,7.7-10.3,10.7c-0.9,0.7-2.1,1-3.3,0.8c-1.1-0.2-2.1-0.9-2.8-1.9c-0.8-1.2-1.9-2.1-3.2-2.6
			c-0.8-0.3-1.5-0.4-2.3-0.4c-2.7,0-5.1,1.7-6.1,4.2c-0.5,1.3-0.6,2.7-0.2,4c0.3,1.1,0.1,2.3-0.5,3.3c-0.6,1-1.6,1.7-2.8,1.9
			C56.6,98.3,53.8,98.5,51.1,98.5z M34.6,82c3.8,0,7.2,2.2,8.7,5.7c0.8,1.9,1,4,0.6,6c-0.1,0.3,0,0.6,0.2,0.9
			c0.2,0.3,0.5,0.4,0.8,0.5c4.6,0.6,9.4,0.6,14-0.2c0.3-0.1,0.6-0.2,0.8-0.5c0.2-0.3,0.2-0.6,0.1-0.9c-0.5-2-0.4-4,0.3-5.9
			c1.4-3.7,5-6.1,8.9-6.1c1.2,0,2.3,0.2,3.4,0.6c1.9,0.7,3.5,2.1,4.6,3.9c0.2,0.3,0.4,0.5,0.7,0.5c0.3,0.1,0.6,0,0.9-0.2
			c3.7-2.8,7-6.2,9.7-10c0.2-0.3,0.2-0.6,0.2-0.9c-0.1-0.3-0.3-0.6-0.5-0.7c-1.7-1-3.1-2.5-3.9-4.3c-2.1-4.8,0-10.5,4.8-12.6
			c1.9-0.8,3.9-1,5.9-0.6c0.1,0,0.2,0,0.2,0c0,0,0,0,0,0c0.2,0,0.5-0.1,0.6-0.2c0.3-0.2,0.4-0.5,0.5-0.8c0.6-4.6,0.5-9.3-0.3-13.9
			c-0.1-0.3-0.2-0.6-0.5-0.7c-0.3-0.2-0.6-0.2-0.9-0.1c-1.9,0.5-3.9,0.4-5.7-0.3c-4.9-1.9-7.4-7.4-5.5-12.3c0.7-1.9,2-3.4,3.7-4.6
			c0.3-0.2,0.4-0.4,0.5-0.7c0.1-0.3,0-0.6-0.2-0.9c-2.8-3.7-6.2-6.9-10-9.6c-0.2-0.2-0.6-0.2-0.9-0.2c-0.3,0.1-0.6,0.2-0.7,0.5
			c-1,1.7-2.5,3-4.3,3.8c-1.2,0.5-2.5,0.8-3.9,0.8c-3.8,0-7.2-2.2-8.7-5.7c-0.8-1.8-1-3.8-0.6-5.8c0.1-0.3,0-0.6-0.2-0.9
			C57.8,5.2,57.5,5,57.2,5c-4.6-0.6-9.3-0.6-13.8,0.2c-0.3,0.1-0.6,0.2-0.8,0.5c-0.2,0.3-0.2,0.6-0.2,0.9c0.5,1.9,0.3,3.9-0.3,5.7
			c-1.4,3.7-5,6.1-8.9,6.1c-1.2,0-2.3-0.2-3.4-0.6c-1.9-0.7-3.4-2-4.6-3.7c-0.2-0.3-0.4-0.4-0.7-0.5c-0.3-0.1-0.6,0-0.9,0.2
			c-3.7,2.8-7,6.1-9.7,9.9c-0.2,0.3-0.2,0.6-0.2,0.9c0.1,0.3,0.3,0.6,0.5,0.7c1.7,1,3,2.5,3.8,4.3c1,2.3,1.1,4.9,0.2,7.3
			c-0.9,2.4-2.7,4.3-5,5.3c-1.9,0.8-3.9,1-5.9,0.6c-0.3-0.1-0.6,0-0.9,0.2C6.2,43.1,6,43.3,6,43.6C5.3,48.3,5.4,53,6.2,57.6
			c0.1,0.3,0.2,0.6,0.5,0.8c0.3,0.2,0.6,0.2,0.9,0.1c1.9-0.5,4-0.4,5.8,0.3c2.4,0.9,4.3,2.7,5.3,5c1,2.3,1.1,4.9,0.2,7.3
			c-0.7,1.9-2.1,3.5-3.9,4.6c-0.3,0.2-0.5,0.4-0.5,0.7c-0.1,0.3,0,0.6,0.2,0.9c2.8,3.8,6.2,7,10,9.7c0.3,0.2,0.6,0.2,0.9,0.2
			c0.3-0.1,0.6-0.3,0.7-0.5c1-1.8,2.5-3.1,4.4-3.9C31.9,82.2,33.2,82,34.6,82z M51,66.4c-6.5,0-12.4-3.8-15-9.8
			c-3.7-8.3,0.1-18,8.3-21.7c2.1-0.9,4.4-1.4,6.7-1.4c6.5,0,12.4,3.8,15,9.8c3.7,8.3-0.1,18-8.3,21.7C55.6,66,53.3,66.4,51,66.4z
			 M51,36.6c-1.9,0-3.7,0.4-5.4,1.2c-6.8,3-9.8,11-6.8,17.7c2.2,4.8,7,8,12.3,8c1.9,0,3.7-0.4,5.4-1.2c6.8-3,9.8-11,6.8-17.7
			C61.1,39.7,56.3,36.6,51,36.6z"/>
	</g>
</g>
</svg>
