<svg width="376px" height="376px" viewBox="0 0 376 376" version="1.1" xmlns="http://www.w3.org/2000/svg" xmlns:xlink="http://www.w3.org/1999/xlink">
    <g id="Page-1" stroke="none" stroke-width="1" fill="none" fill-rule="evenodd">
        <g id="settings" transform="translate(-1.000000, 0.000000)" fill="#FFFFFF" fill-rule="nonzero">
            <path d="M189.067,375.738 C180.447,375.738 171.736,375.132 163.156,373.931 C158.696,373.313 154.668,370.827 152.12,367.11 C149.573,363.416 148.701,358.767 149.73,354.37 C150.997,348.944 150.487,343.42 148.249,338.377 C144.198,329.285 135.141,323.401 125.18,323.401 C121.643,323.401 118.207,324.139 114.95,325.586 C110.078,327.753 106.087,331.35 103.4,336.004 C101.144,339.909 97.321,342.705 92.919,343.66 C88.731,344.627 83.901,343.706 80.205,341.081 C64.426,329.932 50.497,316.397 38.815,300.85 C36.11,297.253 35.038,292.656 35.87,288.242 C36.68,283.868 39.329,279.979 43.143,277.59 C47.926,274.606 51.469,270.379 53.401,265.36 C55.819,259.07 55.642,252.214 52.903,246.061 C50.161,239.903 45.189,235.185 38.897,232.766 C34.048,230.919 28.656,230.651 23.51,231.983 C19.076,233.128 14.461,232.343 10.733,229.942 C6.945,227.495 4.352,223.544 3.608,219.124 C0.397,200.231 0.146,180.888 2.876,161.624 C3.519,157.184 5.984,153.205 9.643,150.674 C13.314,148.138 17.923,147.243 22.274,148.209 C27.549,149.367 33.075,148.835 37.976,146.668 C44.131,143.935 48.854,138.963 51.273,132.668 C53.686,126.381 53.506,119.525 50.77,113.375 C48.657,108.621 45.178,104.698 40.707,102.027 C36.87,99.732 34.148,95.915 33.233,91.541 C32.315,87.178 33.27,82.583 35.858,78.941 C46.994,63.248 60.448,49.419 75.856,37.837 C79.376,35.201 83.93,34.095 88.304,34.864 C92.678,35.636 96.566,38.218 98.982,41.948 C101.947,46.52 106.098,49.933 111.004,51.82 C113.938,52.944 116.983,53.516 120.044,53.516 C130.414,53.516 139.883,47.006 143.6,37.317 C145.438,32.537 145.756,27.339 144.515,22.29 C143.449,17.976 144.238,13.367 146.685,9.65 C149.126,5.936 153.032,3.386 157.406,2.634 C176.055,-0.551 195.671,-0.843 214.589,1.791 C218.981,2.403 222.966,4.83 225.516,8.449 C228.067,12.103 229.004,16.669 228.083,21.009 C226.991,26.25 227.546,31.573 229.695,36.403 C233.744,45.508 242.801,51.386 252.761,51.386 C256.289,51.386 259.726,50.649 262.996,49.197 C267.696,47.107 271.597,43.671 274.272,39.25 C276.587,35.454 280.396,32.76 284.73,31.854 C289.31,30.927 293.662,31.925 297.264,34.441 C312.977,45.531 326.826,58.923 338.434,74.245 C341.122,77.781 342.225,82.327 341.47,86.707 C340.709,91.09 338.13,94.99 334.391,97.414 C329.829,100.385 326.42,104.536 324.538,109.419 C319.553,122.41 326.065,137.037 339.045,142.021 C343.803,143.854 349.126,144.16 354.227,142.87 C358.579,141.792 363.175,142.57 366.892,144.977 C370.637,147.413 373.216,151.318 373.965,155.704 C377.259,174.617 377.625,193.926 375.052,213.076 C374.44,217.536 371.981,221.545 368.31,224.1 C365.606,225.975 362.426,226.965 359.122,226.965 C359.116,226.965 359.116,226.965 359.116,226.965 C357.961,226.965 356.805,226.844 355.679,226.604 C350.298,225.404 344.867,225.97 339.972,228.137 C327.278,233.786 321.542,248.733 327.186,261.444 C329.331,266.259 332.893,270.227 337.473,272.909 C341.35,275.18 344.118,278.982 345.067,283.356 C346.01,287.719 345.089,292.322 342.528,295.993 C331.407,311.82 317.929,325.772 302.467,337.483 C298.922,340.171 294.29,341.296 289.87,340.485 C285.45,339.661 281.545,337.014 279.16,333.212 C276.176,328.442 271.95,324.898 266.93,322.959 C264.014,321.845 260.972,321.278 257.918,321.278 C247.551,321.278 238.07,327.785 234.349,337.477 C232.461,342.389 232.216,347.758 233.634,353.012 C234.806,357.341 234.085,362.013 231.666,365.821 C229.242,369.612 225.308,372.237 220.871,373.009 C210.393,374.811 199.688,375.738 189.067,375.738 Z M125.18,311.69 C139.761,311.69 153.015,320.296 158.953,333.619 C162.238,341.018 162.987,349.109 161.137,357.04 C160.857,358.229 161.091,359.482 161.769,360.478 C162.467,361.496 163.556,362.165 164.768,362.33 C182.726,364.835 201.066,364.543 218.872,361.456 C220.073,361.25 221.143,360.541 221.794,359.512 C222.446,358.477 222.652,357.213 222.338,356.058 C220.262,348.379 220.646,340.505 223.424,333.26 C228.885,319.08 242.751,309.554 257.933,309.554 C262.427,309.554 266.865,310.383 271.147,312.012 C278.563,314.877 284.755,320.046 289.101,326.977 C289.747,328.017 290.805,328.738 292.006,328.956 C293.19,329.167 294.453,328.858 295.414,328.144 C309.903,317.165 322.534,304.088 332.946,289.267 C333.65,288.267 333.895,287.038 333.633,285.83 C333.376,284.652 332.627,283.617 331.57,283 C324.862,279.083 319.641,273.268 316.491,266.188 C308.228,247.577 316.623,225.7 335.223,217.425 C342.405,214.246 350.461,213.451 358.193,215.154 C358.484,215.217 358.804,215.252 359.119,215.252 C359.125,215.252 359.125,215.252 359.125,215.252 C360.034,215.252 360.903,214.983 361.641,214.475 C362.63,213.788 363.287,212.702 363.459,211.496 C365.872,193.548 365.529,175.441 362.441,157.692 C362.235,156.505 361.544,155.451 360.531,154.796 C359.531,154.147 358.267,153.935 357.078,154.227 C349.661,156.077 341.85,155.645 334.857,152.946 C315.85,145.644 306.324,124.23 313.627,105.213 C316.395,98.005 321.369,91.91 328.03,87.584 C329.042,86.927 329.74,85.874 329.945,84.685 C330.146,83.496 329.848,82.267 329.122,81.312 C318.235,66.945 305.25,54.397 290.537,44.01 C289.571,43.335 288.318,43.067 287.095,43.313 C285.957,43.553 284.922,44.279 284.299,45.308 C280.376,51.772 274.664,56.816 267.769,59.883 C262.989,62.008 257.945,63.079 252.77,63.079 C238.195,63.079 224.935,54.471 219.005,41.145 C215.849,34.061 215.026,26.255 216.626,18.585 C216.872,17.39 216.621,16.149 215.929,15.16 C215.254,14.194 214.168,13.539 212.973,13.373 C195.246,10.896 176.849,11.177 159.375,14.165 C158.194,14.371 157.134,15.06 156.467,16.074 C155.81,17.069 155.601,18.31 155.881,19.482 C157.696,26.87 157.222,34.48 154.529,41.508 C149.077,55.689 135.216,65.215 120.035,65.215 C115.527,65.215 111.069,64.386 106.795,62.739 C99.565,59.957 93.463,54.968 89.149,48.301 C88.491,47.295 87.44,46.592 86.267,46.38 C85.098,46.174 83.825,46.475 82.871,47.189 C68.449,58.037 55.838,71 45.396,85.7 C44.693,86.689 44.436,87.933 44.681,89.114 C44.927,90.303 45.664,91.333 46.708,91.956 C53.261,95.873 58.364,101.628 61.463,108.596 C65.474,117.608 65.731,127.637 62.2,136.854 C58.658,146.068 51.736,153.348 42.719,157.354 C35.534,160.533 27.477,161.328 19.733,159.624 C18.498,159.35 17.286,159.607 16.291,160.299 C15.305,160.98 14.639,162.06 14.464,163.267 C11.905,181.313 12.137,199.448 15.148,217.157 C15.354,218.363 16.057,219.432 17.081,220.095 C18.076,220.73 19.371,220.953 20.558,220.633 C28.003,218.677 35.948,219.077 43.084,221.817 C52.296,225.356 59.578,232.263 63.589,241.275 C67.6,250.293 67.858,260.328 64.321,269.54 C61.47,276.956 56.287,283.166 49.337,287.494 C48.313,288.135 47.593,289.181 47.376,290.364 C47.147,291.577 47.442,292.823 48.174,293.796 C59.124,308.365 72.175,321.054 86.965,331.506 C87.954,332.209 89.218,332.472 90.373,332.209 C91.608,331.94 92.643,331.186 93.252,330.128 C97.189,323.323 103.044,318.052 110.18,314.872 C114.945,312.765 119.994,311.69 125.18,311.69 Z M188.921,251.565 C163.759,251.565 140.907,236.721 130.695,213.753 C116.431,181.675 130.924,143.956 162.999,129.681 C171.233,126.022 179.933,124.172 188.856,124.172 C214.001,124.172 236.856,139.013 247.073,161.985 C261.345,194.066 246.856,231.782 214.766,246.066 C206.539,249.718 197.845,251.565 188.921,251.565 Z M188.85,135.881 C181.577,135.881 174.475,137.391 167.753,140.384 C141.582,152.029 129.754,182.815 141.399,209 C149.73,227.75 168.385,239.86 188.921,239.86 C196.192,239.86 203.285,238.35 210.015,235.366 C236.198,223.713 248.022,192.927 236.369,166.75 C228.032,147.99 209.375,135.881 188.85,135.881 Z" id="Shape"></path>
        </g>
    </g>
</svg>