<svg width="335px" height="446px" viewBox="0 0 335 446" version="1.1" xmlns="http://www.w3.org/2000/svg" xmlns:xlink="http://www.w3.org/1999/xlink">
    <g id="Page-1" stroke="none" stroke-width="1" fill="none" fill-rule="evenodd">
        <g id="unlocked" fill="#FFFFFF" fill-rule="nonzero">
            <path d="M274.622,185.348 L267.843,185.348 L83.6,185.348 L83.6,184.251 L83.6,114.053 L83.6,100.25 C83.6,53.933 121.284,16.257 167.593,16.257 C213.902,16.257 251.586,53.941 251.586,100.25 L251.586,114.052 L267.843,114.052 L267.843,100.25 C267.843,44.967 222.875,0 167.593,0 C112.311,0 67.343,44.975 67.343,100.258 L67.343,185.356 L0.957,185.356 L0.957,445.186 L334.229,445.186 L334.229,185.348 L274.622,185.348 Z M317.971,428.929 L17.214,428.929 L17.214,201.605 L317.971,201.605 L317.971,428.929 Z" id="Shape"></path>
        </g>
    </g>
</svg>